<?xml version="1.0" encoding="UTF-8"?><svg id="Layer_1" xmlns="http://www.w3.org/2000/svg" viewBox="0 0 50 50"><defs><style>.cls-1{fill:#d41317;}.cls-2{fill:#fff;fill-rule:evenodd;}</style></defs><rect class="cls-1" x="-1" width="52" height="50"/><path class="cls-2" d="m27.04,27.61c0,1.71-.18,2.95-.59,3.6-.35.71-1,1-2.01,1-.95,0-1.65-.29-2.01-.82-.35-.53-.53-1.53-.53-2.95v-5.9c0-1.18.24-2.07.65-2.65.41-.59,1.06-.89,1.89-.89,1,0,1.65.35,2.01,1,.41.65.59,1.89.59,3.6v4.02h0Zm9.57,6.32c.77-1.06,1.18-2.83,1.18-5.31v-9.09c0-4.84-1-8.33-2.95-10.4-1.95-2.01-5.26-3.07-9.86-3.07s-7.86,1.06-9.8,3.25c-1.95,2.12-2.95,5.74-2.95,10.81v11.76c0,3.12,0,6.38,2.36,8.85,2.66,2.72,7.02,3.19,10.51,3.3,1.83.05,3.6-.06,5.25-.42h.23c1.47-.29,4.55-.88,4.13-3.12-.06-.59-.29-1.01-.7-1.24-.83-.53-2.12-.24-3.14,0-.23.06-.53.12-.7.18-1.95.36-4.02.47-6.32.29-1.77-.06-3.66-.29-5.13-1.12-.77-.41-1.42-1.06-1.83-1.77-.94-1.65-1.06-3.42-1.06-5.13v-11.76c0-3.84.71-6.02,2.12-7.67,1.36-1.6,3.78-2.42,7.03-2.42s5.67.77,7.08,2.36c1.42,1.6,2.13,3.66,2.13,7.33v9.09c0,1.3-.11,2.24-.29,2.77-.3,1.06-2.01.94-2.36-.06-.18-.53-.23-1.07-.35-1.6-.3-1.53-.36-3.13-.48-4.67-.06-.83-.12-1.66-.12-2.48l-.06-.36c-.07-1.95-.12-4.6-1.84-5.79-.53-.35-1.24-.64-1.89-.7-.89-.07-1.95-.07-2.89-.07h-.71c-1.53,0-2.6.53-3.42,1.66-.77,1.13-1.18,2.83-1.18,5.02v6.14c0,2.42.42,4.26,1.24,5.38.83,1.12,2.12,1.65,3.96,1.65,1.24,0,3.54-.24,4.48-1.65.36-.47.59-1.06.71-1.66.71,2.19,1.95,3.31,3.72,3.31s3.13-.53,3.9-1.6h0Z"/></svg>